<?xml version="1.0" encoding="UTF-8" standalone="no"?>
<!DOCTYPE svg PUBLIC "-//W3C//DTD SVG 1.1//EN" "http://www.w3.org/Graphics/SVG/1.1/DTD/svg11.dtd">
<!-- Created with Vectornator (http://vectornator.io/) -->
<svg height="100%" stroke-miterlimit="10" style="fill-rule:nonzero;clip-rule:evenodd;stroke-linecap:round;stroke-linejoin:round;" version="1.1" viewBox="0 0 315 300" width="100%" xml:space="preserve" xmlns="http://www.w3.org/2000/svg" xmlns:xlink="http://www.w3.org/1999/xlink">
<defs/>
<clipPath id="ArtboardFrame">
<rect height="300" width="315" x="0" y="0"/>
</clipPath>
<g clip-path="url(#ArtboardFrame)" id="Livello-1">
<path d="M0 0L0 212.5C0 202.835 7.83502 195 17.5 195C27.165 195 35 202.835 35 212.5C35 202.835 42.835 195 52.5 195C62.165 195 70 202.835 70 212.5C70 202.835 77.835 195 87.5 195C97.165 195 105 202.835 105 212.5C105 202.835 112.835 195 122.5 195C132.165 195 140 202.835 140 212.5C140 202.835 147.835 195 157.5 195C167.165 195 175 202.835 175 212.5C175 202.835 182.835 195 192.5 195C202.165 195 210 202.835 210 212.5C210 202.835 217.835 195 227.5 195C237.165 195 245 202.835 245 212.5C245 202.835 252.835 195 262.5 195C272.165 195 280 202.835 280 212.5C280 202.835 287.835 195 297.5 195C307.165 195 315 202.835 315 212.5L315 0L297.5 0C298.881 0 300 1.11929 300 2.5C300 3.88071 298.881 5 297.5 5C296.119 5 295 3.88071 295 2.5C295 1.11929 296.119 0 297.5 0L262.5 0C263.881 0 265 1.11929 265 2.5C265 3.88071 263.881 5 262.5 5C261.119 5 260 3.88071 260 2.5C260 1.11929 261.119 0 262.5 0L227.5 0C228.881 0 230 1.11929 230 2.5C230 3.88071 228.881 5 227.5 5C226.119 5 225 3.88071 225 2.5C225 1.11929 226.119 0 227.5 0L192.5 0C193.881 0 195 1.11929 195 2.5C195 3.88071 193.881 5 192.5 5C191.119 5 190 3.88071 190 2.5C190 1.11929 191.119 0 192.5 0L157.5 0C158.881 0 160 1.11929 160 2.5C160 3.88071 158.881 5 157.5 5C156.119 5 155 3.88071 155 2.5C155 1.11929 156.119 0 157.5 0L122.5 0C123.881 0 125 1.11929 125 2.5C125 3.88071 123.881 5 122.5 5C121.119 5 120 3.88071 120 2.5C120 1.11929 121.119 0 122.5 0L87.5 0C88.8807 0 90 1.11929 90 2.5C90 3.88071 88.8807 5 87.5 5C86.1193 5 85 3.88071 85 2.5C85 1.11929 86.1193 0 87.5 0L52.5 0C53.8807 0 55 1.11929 55 2.5C55 3.88071 53.8807 5 52.5 5C51.1193 5 50 3.88071 50 2.5C50 1.11929 51.1193 0 52.5 0L17.5 0C18.8807 0 20 1.11929 20 2.5C20 3.88071 18.8807 5 17.5 5C16.1193 5 15 3.88071 15 2.5C15 1.11929 16.1193 0 17.5 0L0 0ZM17.5 32.5C20.2614 32.5 22.5 34.7386 22.5 37.5C22.5 40.2614 20.2614 42.5 17.5 42.5C14.7386 42.5 12.5 40.2614 12.5 37.5C12.5 34.7386 14.7386 32.5 17.5 32.5ZM52.5 32.5C55.2614 32.5 57.5 34.7386 57.5 37.5C57.5 40.2614 55.2614 42.5 52.5 42.5C49.7386 42.5 47.5 40.2614 47.5 37.5C47.5 34.7386 49.7386 32.5 52.5 32.5ZM87.5 32.5C90.2614 32.5 92.5 34.7386 92.5 37.5C92.5 40.2614 90.2614 42.5 87.5 42.5C84.7386 42.5 82.5 40.2614 82.5 37.5C82.5 34.7386 84.7386 32.5 87.5 32.5ZM122.5 32.5C125.261 32.5 127.5 34.7386 127.5 37.5C127.5 40.2614 125.261 42.5 122.5 42.5C119.739 42.5 117.5 40.2614 117.5 37.5C117.5 34.7386 119.739 32.5 122.5 32.5ZM157.5 32.5C160.261 32.5 162.5 34.7386 162.5 37.5C162.5 40.2614 160.261 42.5 157.5 42.5C154.739 42.5 152.5 40.2614 152.5 37.5C152.5 34.7386 154.739 32.5 157.5 32.5ZM192.5 32.5C195.261 32.5 197.5 34.7386 197.5 37.5C197.5 40.2614 195.261 42.5 192.5 42.5C189.739 42.5 187.5 40.2614 187.5 37.5C187.5 34.7386 189.739 32.5 192.5 32.5ZM227.5 32.5C230.261 32.5 232.5 34.7386 232.5 37.5C232.5 40.2614 230.261 42.5 227.5 42.5C224.739 42.5 222.5 40.2614 222.5 37.5C222.5 34.7386 224.739 32.5 227.5 32.5ZM262.5 32.5C265.261 32.5 267.5 34.7386 267.5 37.5C267.5 40.2614 265.261 42.5 262.5 42.5C259.739 42.5 257.5 40.2614 257.5 37.5C257.5 34.7386 259.739 32.5 262.5 32.5ZM297.5 32.5C300.261 32.5 302.5 34.7386 302.5 37.5C302.5 40.2614 300.261 42.5 297.5 42.5C294.739 42.5 292.5 40.2614 292.5 37.5C292.5 34.7386 294.739 32.5 297.5 32.5ZM17.5 65C21.6421 65 25 68.3579 25 72.5C25 76.6421 21.6421 80 17.5 80C13.3579 80 10 76.6421 10 72.5C10 68.3579 13.3579 65 17.5 65ZM52.5 65C56.6421 65 60 68.3579 60 72.5C60 76.6421 56.6421 80 52.5 80C48.3579 80 45 76.6421 45 72.5C45 68.3579 48.3579 65 52.5 65ZM87.5 65C91.6421 65 95 68.3579 95 72.5C95 76.6421 91.6421 80 87.5 80C83.3579 80 80 76.6421 80 72.5C80 68.3579 83.3579 65 87.5 65ZM122.5 65C126.642 65 130 68.3579 130 72.5C130 76.6421 126.642 80 122.5 80C118.358 80 115 76.6421 115 72.5C115 68.3579 118.358 65 122.5 65ZM157.5 65C161.642 65 165 68.3579 165 72.5C165 76.6421 161.642 80 157.5 80C153.358 80 150 76.6421 150 72.5C150 68.3579 153.358 65 157.5 65ZM192.5 65C196.642 65 200 68.3579 200 72.5C200 76.6421 196.642 80 192.5 80C188.358 80 185 76.6421 185 72.5C185 68.3579 188.358 65 192.5 65ZM227.5 65C231.642 65 235 68.3579 235 72.5C235 76.6421 231.642 80 227.5 80C223.358 80 220 76.6421 220 72.5C220 68.3579 223.358 65 227.5 65ZM262.5 65C266.642 65 270 68.3579 270 72.5C270 76.6421 266.642 80 262.5 80C258.358 80 255 76.6421 255 72.5C255 68.3579 258.358 65 262.5 65ZM297.5 65C301.642 65 305 68.3579 305 72.5C305 76.6421 301.642 80 297.5 80C293.358 80 290 76.6421 290 72.5C290 68.3579 293.358 65 297.5 65ZM17.5 97.5C23.0228 97.5 27.5 101.977 27.5 107.5C27.5 113.023 23.0228 117.5 17.5 117.5C11.9772 117.5 7.5 113.023 7.5 107.5C7.5 101.977 11.9772 97.5 17.5 97.5ZM52.5 97.5C58.0228 97.5 62.5 101.977 62.5 107.5C62.5 113.023 58.0228 117.5 52.5 117.5C46.9772 117.5 42.5 113.023 42.5 107.5C42.5 101.977 46.9772 97.5 52.5 97.5ZM87.5 97.5C93.0228 97.5 97.5 101.977 97.5 107.5C97.5 113.023 93.0228 117.5 87.5 117.5C81.9772 117.5 77.5 113.023 77.5 107.5C77.5 101.977 81.9772 97.5 87.5 97.5ZM122.5 97.5C128.023 97.5 132.5 101.977 132.5 107.5C132.5 113.023 128.023 117.5 122.5 117.5C116.977 117.5 112.5 113.023 112.5 107.5C112.5 101.977 116.977 97.5 122.5 97.5ZM157.5 97.5C163.023 97.5 167.5 101.977 167.5 107.5C167.5 113.023 163.023 117.5 157.5 117.5C151.977 117.5 147.5 113.023 147.5 107.5C147.5 101.977 151.977 97.5 157.5 97.5ZM192.5 97.5C198.023 97.5 202.5 101.977 202.5 107.5C202.5 113.023 198.023 117.5 192.5 117.5C186.977 117.5 182.5 113.023 182.5 107.5C182.5 101.977 186.977 97.5 192.5 97.5ZM227.5 97.5C233.023 97.5 237.5 101.977 237.5 107.5C237.5 113.023 233.023 117.5 227.5 117.5C221.977 117.5 217.5 113.023 217.5 107.5C217.5 101.977 221.977 97.5 227.5 97.5ZM262.5 97.5C268.023 97.5 272.5 101.977 272.5 107.5C272.5 113.023 268.023 117.5 262.5 117.5C256.977 117.5 252.5 113.023 252.5 107.5C252.5 101.977 256.977 97.5 262.5 97.5ZM297.5 97.5C303.023 97.5 307.5 101.977 307.5 107.5C307.5 113.023 303.023 117.5 297.5 117.5C291.977 117.5 287.5 113.023 287.5 107.5C287.5 101.977 291.977 97.5 297.5 97.5ZM17.5 130C24.4036 130 30 135.596 30 142.5C30 149.404 24.4036 155 17.5 155C10.5964 155 5 149.404 5 142.5C5 135.596 10.5964 130 17.5 130ZM52.5 130C59.4036 130 65 135.596 65 142.5C65 149.404 59.4036 155 52.5 155C45.5964 155 40 149.404 40 142.5C40 135.596 45.5964 130 52.5 130ZM87.5 130C94.4035 130 100 135.596 100 142.5C100 149.404 94.4035 155 87.5 155C80.5964 155 75 149.404 75 142.5C75 135.596 80.5964 130 87.5 130ZM122.5 130C129.404 130 135 135.596 135 142.5C135 149.404 129.404 155 122.5 155C115.596 155 110 149.404 110 142.5C110 135.596 115.596 130 122.5 130ZM157.5 130C164.404 130 170 135.596 170 142.5C170 149.404 164.404 155 157.5 155C150.596 155 145 149.404 145 142.5C145 135.596 150.596 130 157.5 130ZM192.5 130C199.404 130 205 135.596 205 142.5C205 149.404 199.404 155 192.5 155C185.596 155 180 149.404 180 142.5C180 135.596 185.596 130 192.5 130ZM227.5 130C234.404 130 240 135.596 240 142.5C240 149.404 234.404 155 227.5 155C220.596 155 215 149.404 215 142.5C215 135.596 220.596 130 227.5 130ZM262.5 130C269.404 130 275 135.596 275 142.5C275 149.404 269.404 155 262.5 155C255.596 155 250 149.404 250 142.5C250 135.596 255.596 130 262.5 130ZM297.5 130C304.404 130 310 135.596 310 142.5C310 149.404 304.404 155 297.5 155C290.596 155 285 149.404 285 142.5C285 135.596 290.596 130 297.5 130ZM17.5 162.5C25.7843 162.5 32.5 169.216 32.5 177.5C32.5 185.784 25.7843 192.5 17.5 192.5C9.21573 192.5 2.5 185.784 2.5 177.5C2.5 169.216 9.21573 162.5 17.5 162.5ZM52.5 162.5C60.7843 162.5 67.5 169.216 67.5 177.5C67.5 185.784 60.7843 192.5 52.5 192.5C44.2157 192.5 37.5 185.784 37.5 177.5C37.5 169.216 44.2157 162.5 52.5 162.5ZM87.5 162.5C95.7843 162.5 102.5 169.216 102.5 177.5C102.5 185.784 95.7843 192.5 87.5 192.5C79.2157 192.5 72.5 185.784 72.5 177.5C72.5 169.216 79.2157 162.5 87.5 162.5ZM122.5 162.5C130.784 162.5 137.5 169.216 137.5 177.5C137.5 185.784 130.784 192.5 122.5 192.5C114.216 192.5 107.5 185.784 107.5 177.5C107.5 169.216 114.216 162.5 122.5 162.5ZM157.5 162.5C165.784 162.5 172.5 169.216 172.5 177.5C172.5 185.784 165.784 192.5 157.5 192.5C149.216 192.5 142.5 185.784 142.5 177.5C142.5 169.216 149.216 162.5 157.5 162.5ZM192.5 162.5C200.784 162.5 207.5 169.216 207.5 177.5C207.5 185.784 200.784 192.5 192.5 192.5C184.216 192.5 177.5 185.784 177.5 177.5C177.5 169.216 184.216 162.5 192.5 162.5ZM227.5 162.5C235.784 162.5 242.5 169.216 242.5 177.5C242.5 185.784 235.784 192.5 227.5 192.5C219.216 192.5 212.5 185.784 212.5 177.5C212.5 169.216 219.216 162.5 227.5 162.5ZM262.5 162.5C270.784 162.5 277.5 169.216 277.5 177.5C277.5 185.784 270.784 192.5 262.5 192.5C254.216 192.5 247.5 185.784 247.5 177.5C247.5 169.216 254.216 162.5 262.5 162.5ZM297.5 162.5C305.784 162.5 312.5 169.216 312.5 177.5C312.5 185.784 305.784 192.5 297.5 192.5C289.216 192.5 282.5 185.784 282.5 177.5C282.5 169.216 289.216 162.5 297.5 162.5ZM315 212.5C315 219.829 310.485 226.081 304.094 228.688C308.887 230.371 312.655 233.918 315 238.344L315 212.5ZM315 238.344L315 257.062C316.572 254.219 317.5 250.982 317.5 247.5C317.5 244.146 316.465 241.108 315 238.344ZM315 257.062C313.611 259.576 311.726 261.789 309.438 263.5C311.611 264.867 313.408 266.691 315 268.688L315 257.062ZM315 268.688L315 296.5C318.087 292.649 320 287.819 320 282.5C320 277.227 318.045 272.506 315 268.688ZM315 296.5C314.49 297.136 314.012 297.798 313.438 298.375C314.009 298.852 314.472 299.445 315 299.969L315 296.5ZM280 212.5C280 219.829 275.485 226.081 269.094 228.688C273.793 230.338 277.648 233.682 280 238C282.352 233.682 286.207 230.338 290.906 228.688C284.515 226.081 280 219.829 280 212.5ZM245 212.5C245 219.829 240.485 226.081 234.094 228.688C238.793 230.338 242.648 233.682 245 238C247.352 233.682 251.207 230.338 255.906 228.688C249.515 226.081 245 219.829 245 212.5ZM210 212.5C210 219.829 205.485 226.081 199.094 228.688C203.793 230.338 207.648 233.682 210 238C212.352 233.682 216.207 230.338 220.906 228.688C214.515 226.081 210 219.829 210 212.5ZM175 212.5C175 219.829 170.485 226.081 164.094 228.688C168.793 230.338 172.648 233.682 175 238C177.352 233.682 181.207 230.338 185.906 228.688C179.515 226.081 175 219.829 175 212.5ZM140 212.5C140 219.829 135.485 226.081 129.094 228.688C133.793 230.338 137.648 233.682 140 238C142.352 233.682 146.207 230.338 150.906 228.688C144.515 226.081 140 219.829 140 212.5ZM105 212.5C105 219.829 100.485 226.081 94.0938 228.688C98.793 230.338 102.648 233.682 105 238C107.352 233.682 111.207 230.338 115.906 228.688C109.515 226.081 105 219.829 105 212.5ZM70 212.5C70 219.829 65.4854 226.081 59.0938 228.688C63.793 230.338 67.6483 233.682 70 238C72.3517 233.682 76.207 230.338 80.9062 228.688C74.5146 226.081 70 219.829 70 212.5ZM35 212.5C35 219.829 30.4854 226.081 24.0938 228.688C28.793 230.338 32.6483 233.682 35 238C37.3517 233.682 41.207 230.338 45.9062 228.688C39.5146 226.081 35 219.829 35 212.5ZM0 212.5L0 238.344C2.34542 233.918 6.11266 230.371 10.9062 228.688C4.51457 226.081 0 219.829 0 212.5ZM0 238.344C-1.46508 241.108-2.5 244.146-2.5 247.5C-2.5 250.982-1.57158 254.219 0 257.062L0 238.344ZM0 257.062L0 268.688C1.59248 266.691 3.38899 264.867 5.5625 263.5C3.27357 261.789 1.38901 259.576 0 257.062ZM0 268.688C-3.0454 272.506-5 277.227-5 282.5C-5 287.819-3.08657 292.649 0 296.5L0 268.688ZM0 296.5L0 299.969C0.527615 299.445 0.991356 298.852 1.5625 298.375C0.988023 297.798 0.509692 297.136 0 296.5ZM35 257C33.6146 259.544 31.7434 261.776 29.4375 263.5C31.5765 264.845 33.4263 266.535 35 268.5C36.5737 266.535 38.4235 264.845 40.5625 263.5C38.2566 261.776 36.3854 259.544 35 257ZM70 257C68.6146 259.544 66.7434 261.776 64.4375 263.5C66.5765 264.845 68.4263 266.535 70 268.5C71.5737 266.535 73.4235 264.845 75.5625 263.5C73.2566 261.776 71.3854 259.544 70 257ZM105 257C103.615 259.544 101.743 261.776 99.4375 263.5C101.577 264.845 103.426 266.535 105 268.5C106.574 266.535 108.423 264.845 110.562 263.5C108.257 261.776 106.385 259.544 105 257ZM140 257C138.615 259.544 136.743 261.776 134.438 263.5C136.577 264.845 138.426 266.535 140 268.5C141.574 266.535 143.423 264.845 145.562 263.5C143.257 261.776 141.385 259.544 140 257ZM175 257C173.615 259.544 171.743 261.776 169.438 263.5C171.576 264.845 173.426 266.535 175 268.5C176.574 266.535 178.423 264.845 180.562 263.5C178.257 261.776 176.385 259.544 175 257ZM210 257C208.615 259.544 206.743 261.776 204.438 263.5C206.577 264.845 208.426 266.535 210 268.5C211.574 266.535 213.423 264.845 215.562 263.5C213.257 261.776 211.385 259.544 210 257ZM245 257C243.615 259.544 241.743 261.776 239.438 263.5C241.577 264.845 243.426 266.535 245 268.5C246.574 266.535 248.423 264.845 250.562 263.5C248.257 261.776 246.385 259.544 245 257ZM280 257C278.615 259.544 276.743 261.776 274.438 263.5C276.577 264.845 278.426 266.535 280 268.5C281.574 266.535 283.423 264.845 285.562 263.5C283.257 261.776 281.385 259.544 280 257ZM35 296.5C35.5107 297.138 35.9866 297.797 36.5625 298.375C36.0448 298.807 35.481 299.185 35 299.656C34.519 299.185 33.9552 298.807 33.4375 298.375C34.0134 297.797 34.4893 297.138 35 296.5ZM70 296.5C70.5107 297.138 70.9866 297.797 71.5625 298.375C71.0448 298.807 70.481 299.185 70 299.656C69.519 299.185 68.9552 298.807 68.4375 298.375C69.0134 297.797 69.4893 297.138 70 296.5ZM105 296.5C105.511 297.138 105.987 297.797 106.562 298.375C106.045 298.807 105.481 299.185 105 299.656C104.519 299.185 103.955 298.807 103.438 298.375C104.013 297.797 104.489 297.138 105 296.5ZM140 296.5C140.511 297.138 140.987 297.797 141.562 298.375C141.045 298.807 140.481 299.185 140 299.656C139.519 299.185 138.955 298.807 138.438 298.375C139.013 297.797 139.489 297.138 140 296.5ZM175 296.5C175.511 297.138 175.987 297.797 176.562 298.375C176.045 298.807 175.481 299.185 175 299.656C174.519 299.185 173.955 298.807 173.438 298.375C174.013 297.797 174.489 297.138 175 296.5ZM210 296.5C210.511 297.138 210.987 297.797 211.562 298.375C211.045 298.807 210.481 299.185 210 299.656C209.519 299.185 208.955 298.807 208.438 298.375C209.013 297.797 209.489 297.138 210 296.5ZM245 296.5C245.511 297.138 245.987 297.797 246.562 298.375C246.045 298.807 245.481 299.185 245 299.656C244.519 299.185 243.955 298.807 243.438 298.375C244.013 297.797 244.489 297.138 245 296.5ZM280 296.5C280.511 297.138 280.987 297.797 281.562 298.375C281.045 298.807 280.481 299.185 280 299.656C279.519 299.185 278.955 298.807 278.438 298.375C279.013 297.797 279.489 297.138 280 296.5ZM0 300C-4.54098 304.511-7.5 310.592-7.5 317.5C-7.5 331.307 3.69288 342.5 17.5 342.5C24.3158 342.5 30.4903 339.767 35 335.344C39.5097 339.767 45.6842 342.5 52.5 342.5C59.3158 342.5 65.4903 339.767 70 335.344C74.5097 339.767 80.6842 342.5 87.5 342.5C94.3158 342.5 100.49 339.767 105 335.344C109.51 339.767 115.684 342.5 122.5 342.5C129.316 342.5 135.49 339.767 140 335.344C144.51 339.767 150.684 342.5 157.5 342.5C164.316 342.5 170.49 339.767 175 335.344C179.51 339.767 185.684 342.5 192.5 342.5C199.316 342.5 205.49 339.767 210 335.344C214.51 339.767 220.684 342.5 227.5 342.5C234.316 342.5 240.49 339.767 245 335.344C249.51 339.767 255.684 342.5 262.5 342.5C269.316 342.5 275.49 339.767 280 335.344C284.51 339.767 290.684 342.5 297.5 342.5C311.307 342.5 322.5 331.307 322.5 317.5C322.5 310.592 319.541 304.511 315 300L0 300Z" fill="#ffffff" fill-rule="nonzero" opacity="1" stroke="none"/>
</g>
</svg>
