<?xml version="1.0" encoding="UTF-8" standalone="no"?>
<!DOCTYPE svg PUBLIC "-//W3C//DTD SVG 1.1//EN" "http://www.w3.org/Graphics/SVG/1.1/DTD/svg11.dtd">
<!-- Created with Vectornator (http://vectornator.io/) -->
<svg height="100%" stroke-miterlimit="10" style="fill-rule:nonzero;clip-rule:evenodd;stroke-linecap:round;stroke-linejoin:round;" version="1.1" viewBox="0 0 1024 1024" width="100%" xml:space="preserve" xmlns="http://www.w3.org/2000/svg" xmlns:vectornator="http://vectornator.io" xmlns:xlink="http://www.w3.org/1999/xlink">
<defs/>
<g id="Livello-1" vectornator:layerName="Livello 1">
<path d="M0 0L1024 0L1024 1024L0 1024L0 0Z" fill="#e15638" fill-rule="nonzero" opacity="1" stroke="#000000" stroke-linecap="butt" stroke-linejoin="miter" stroke-opacity="0" stroke-width="10.5847"/>
<path d="M206 592.002C206 423.002 343.001 286 512 286C680.999 286 818 423.002 818 592.002C818 761.002 680.999 898.004 512 898.004C343.001 898.004 206 761.002 206 592.002Z" fill="#ffffff" fill-rule="nonzero" opacity="1" stroke="#000000" stroke-linecap="butt" stroke-linejoin="miter" stroke-opacity="0" stroke-width="10.5847"/>
<path d="M728.506 166.865C689.6 164.354 644.822 174.766 602.753 199.054C560.684 223.343 529.279 256.916 512 291.865C550.906 294.376 595.684 283.964 637.753 259.676C679.822 235.387 711.227 201.814 728.506 166.865Z" fill="#ffffff" fill-rule="nonzero" opacity="1" stroke="#000000" stroke-linecap="butt" stroke-linejoin="miter" stroke-opacity="0" stroke-width="10.5847"/>
<path d="M637.365 75.5C602.416 92.7789 568.843 124.184 544.554 166.253C520.266 208.322 509.854 253.1 512.365 292.006C547.314 274.727 580.887 243.322 605.176 201.253C629.464 159.184 639.876 114.406 637.365 75.5Z" fill="#ffffff" fill-rule="nonzero" opacity="1" stroke="#000000" stroke-linecap="butt" stroke-linejoin="miter" stroke-opacity="0" stroke-width="10.5847"/>
</g>
</svg>
